<svg width="20" height="18" viewBox="0 0 20 18" fill="none" xmlns="http://www.w3.org/2000/svg">
<path d="M17.7375 0.872324C17.5068 0.889111 17.2803 0.943242 17.067 1.0326H17.0641C16.8592 1.11382 15.8853 1.52351 14.4047 2.14451L9.09889 4.3791C5.29167 5.98192 1.54914 7.56029 1.54914 7.56029L1.5937 7.54304C1.5937 7.54304 1.33567 7.62785 1.06614 7.81257C0.899626 7.91853 0.75634 8.05717 0.644953 8.2201C0.512703 8.41417 0.406328 8.71101 0.445859 9.01792C0.510547 9.53685 0.846922 9.84807 1.08842 10.0199C1.3328 10.1938 1.56567 10.275 1.56567 10.275H1.57142L5.08108 11.4574C5.23848 11.9626 6.15058 14.9613 6.3698 15.652C6.49917 16.0645 6.62495 16.3226 6.78236 16.5195C6.85855 16.6201 6.94767 16.7042 7.05477 16.7718C7.11044 16.8042 7.1698 16.8298 7.23158 16.848L7.19564 16.8394C7.20642 16.8422 7.21505 16.8509 7.22295 16.8537C7.2517 16.8616 7.27111 16.8645 7.30777 16.8703C7.86336 17.0384 8.3097 16.6934 8.3097 16.6934L8.33486 16.6733L10.407 14.7866L13.88 17.451L13.9591 17.4848C14.6829 17.8025 15.416 17.6257 15.8034 17.3137C16.1937 16.9996 16.3453 16.5979 16.3453 16.5979L16.3705 16.5332L19.0543 2.7842C19.1305 2.44495 19.1499 2.12726 19.0658 1.81892C18.9791 1.50685 18.7789 1.23846 18.5045 1.06639C18.274 0.926313 18.0069 0.858702 17.7375 0.872324ZM17.665 2.34576C17.6621 2.39104 17.6707 2.38601 17.6506 2.47298V2.48089L14.9919 16.0868C14.9804 16.1062 14.961 16.1486 14.9078 16.191C14.8518 16.2356 14.8072 16.2636 14.5736 16.1709L10.3258 12.9143L7.75986 15.2531L8.29892 11.8103L15.2392 5.34151C15.5252 5.07557 15.4296 5.01951 15.4296 5.01951C15.4498 4.6932 14.9977 4.92392 14.9977 4.92392L6.24617 10.3454L6.2433 10.3311L2.04867 8.91873V8.91585L2.03789 8.9137C2.04524 8.91126 2.05244 8.90838 2.05945 8.90507L2.08245 8.89357L2.10473 8.88567C2.10473 8.88567 5.85014 7.30729 9.65736 5.70448C11.5635 4.90164 13.484 4.09304 14.961 3.46917C15.837 3.10045 16.7139 2.73389 17.5916 2.36948C17.6506 2.34648 17.6225 2.34648 17.665 2.34648V2.34576Z" fill="#87A9BC"/>
</svg>
